<?xml version="1.0" encoding="utf-8"?>
<!-- Generator: Adobe Illustrator 21.1.0, SVG Export Plug-In . SVG Version: 6.00 Build 0)  -->
<svg version="1.1" id="Layer_1" xmlns="http://www.w3.org/2000/svg" xmlns:xlink="http://www.w3.org/1999/xlink" x="0px" y="0px"
	 viewBox="0 0 333.55 104.901" style="enable-background:new 0 0 333.55 104.901;" xml:space="preserve">
<style type="text/css">
	.st0{fill:#662D91;}
	.st1{fill:#939598;}
	.st2{fill:#3EA37D;}
	.st3{opacity:0.1;fill:#191919;}
	.st4{fill:#67308F;}
	.st5{fill:#46174A;}
	.st6{fill:#FFFFFF;}
	.st7{fill:#F1F2F2;}
	.st8{fill:#58595B;}
</style>
<g>
	<g>
		<path class="st0" d="M40.523,47.476c1.444,1.474,2.167,3.713,2.167,6.718v10.68c0,0.787-0.234,1.408-0.7,1.859
			c-0.467,0.453-1.109,0.679-1.926,0.679c-0.759,0-1.378-0.233-1.86-0.7s-0.722-1.079-0.722-1.838v-0.963
			c-0.497,1.138-1.277,2.028-2.342,2.67c-1.065,0.641-2.298,0.963-3.698,0.963c-1.43,0-2.729-0.292-3.896-0.876
			c-1.167-0.583-2.086-1.386-2.757-2.407c-0.671-1.021-1.007-2.159-1.007-3.414c0-1.575,0.401-2.815,1.204-3.72
			c0.802-0.904,2.108-1.561,3.917-1.97c1.809-0.408,4.304-0.613,7.484-0.613h1.094v-1.006c0-1.43-0.307-2.473-0.919-3.13
			c-0.613-0.656-1.605-0.985-2.976-0.985c-0.847,0-1.707,0.125-2.583,0.372c-0.875,0.249-1.911,0.606-3.107,1.072
			c-0.759,0.38-1.313,0.569-1.663,0.569c-0.525,0-0.956-0.189-1.291-0.569c-0.336-0.378-0.503-0.875-0.503-1.488
			c0-0.496,0.124-0.926,0.372-1.291c0.248-0.365,0.663-0.708,1.247-1.029c1.021-0.554,2.239-0.992,3.655-1.313
			c1.415-0.321,2.808-0.481,4.18-0.481C36.868,45.266,39.078,46.003,40.523,47.476z M36.102,62.138
			c0.919-0.977,1.379-2.238,1.379-3.785v-0.92h-0.788c-1.955,0-3.473,0.088-4.552,0.263c-1.08,0.176-1.854,0.481-2.32,0.92
			c-0.467,0.438-0.7,1.036-0.7,1.794c0,0.935,0.328,1.7,0.985,2.298c0.656,0.599,1.466,0.897,2.429,0.897
			C33.994,63.605,35.183,63.116,36.102,62.138z"/>
		<path class="st0" d="M54.375,41.633c-0.613,0.729-0.919,1.78-0.919,3.151v1.007h3.72c1.634,0,2.451,0.686,2.451,2.057
			s-0.817,2.057-2.451,2.057h-3.72V64.83c0,0.847-0.256,1.488-0.766,1.926c-0.511,0.438-1.16,0.656-1.948,0.656
			c-0.788,0-1.444-0.219-1.969-0.656c-0.525-0.438-0.788-1.079-0.788-1.926V49.905h-2.188c-1.634,0-2.451-0.685-2.451-2.057
			s0.816-2.057,2.451-2.057h2.188v-0.307c0-2.742,0.722-4.895,2.167-6.456c1.444-1.561,3.479-2.444,6.105-2.648l1.138-0.088
			c1.167-0.087,1.991,0.037,2.473,0.372c0.481,0.336,0.722,0.854,0.722,1.554c0,1.255-0.715,1.956-2.145,2.101l-1.138,0.087
			C55.965,40.495,54.988,40.904,54.375,41.633z"/>
		<path class="st0" d="M67.417,41.633c-0.613,0.729-0.919,1.78-0.919,3.151v1.007h3.72c1.634,0,2.451,0.686,2.451,2.057
			s-0.817,2.057-2.451,2.057h-3.72V64.83c0,0.847-0.256,1.488-0.766,1.926c-0.511,0.438-1.16,0.656-1.948,0.656
			c-0.788,0-1.444-0.219-1.969-0.656c-0.525-0.438-0.788-1.079-0.788-1.926V49.905h-2.188c-1.634,0-2.451-0.685-2.451-2.057
			s0.816-2.057,2.451-2.057h2.188v-0.307c0-2.742,0.722-4.895,2.167-6.456c1.444-1.561,3.479-2.444,6.105-2.648l1.138-0.088
			c1.167-0.087,1.991,0.037,2.473,0.372c0.481,0.336,0.722,0.854,0.722,1.554c0,1.255-0.715,1.956-2.145,2.101l-1.138,0.087
			C69.007,40.495,68.03,40.904,67.417,41.633z"/>
		<path class="st0" d="M77.462,66.187c-1.649-0.904-2.925-2.202-3.83-3.896c-0.905-1.691-1.357-3.661-1.357-5.908
			s0.452-4.208,1.357-5.887c0.904-1.678,2.181-2.969,3.83-3.874c1.648-0.904,3.567-1.357,5.755-1.357
			c2.188,0,4.107,0.453,5.756,1.357c1.648,0.905,2.917,2.196,3.808,3.874c0.89,1.678,1.335,3.64,1.335,5.887
			S93.67,60.6,92.78,62.291c-0.89,1.693-2.16,2.991-3.808,3.896c-1.649,0.905-3.567,1.357-5.756,1.357
			C81.029,67.544,79.11,67.092,77.462,66.187z M87.244,61.547c0.934-1.166,1.4-2.889,1.4-5.164c0-2.247-0.467-3.961-1.4-5.143
			c-0.934-1.182-2.276-1.772-4.027-1.772c-1.75,0-3.101,0.591-4.048,1.772c-0.949,1.182-1.422,2.896-1.422,5.143
			c0,2.275,0.466,3.998,1.4,5.164c0.934,1.168,2.276,1.751,4.027,1.751C84.953,63.298,86.31,62.715,87.244,61.547z"/>
		<path class="st0" d="M110.615,45.835c0.438,0.38,0.657,0.949,0.657,1.707c0,0.788-0.19,1.372-0.569,1.751
			c-0.38,0.379-1.065,0.627-2.057,0.744l-1.313,0.131c-1.722,0.175-2.984,0.759-3.786,1.751c-0.803,0.992-1.204,2.232-1.204,3.72
			v9.191c0,0.847-0.263,1.495-0.788,1.947c-0.525,0.452-1.182,0.679-1.97,0.679c-0.788,0-1.438-0.227-1.948-0.679
			c-0.511-0.452-0.766-1.101-0.766-1.947V47.892c0-0.816,0.255-1.444,0.766-1.882c0.51-0.438,1.145-0.657,1.904-0.657
			c0.758,0,1.371,0.212,1.838,0.635c0.466,0.423,0.7,1.028,0.7,1.816v1.75c0.554-1.284,1.379-2.276,2.473-2.976
			s2.312-1.094,3.654-1.182l0.613-0.044C109.579,45.295,110.178,45.456,110.615,45.835z"/>
		<path class="st0" d="M131.756,36.819c0.525,0.467,0.788,1.08,0.788,1.838V64.83c0,0.788-0.248,1.415-0.744,1.882
			c-0.497,0.467-1.153,0.7-1.969,0.7c-0.817,0-1.474-0.233-1.97-0.7c-0.497-0.467-0.744-1.094-0.744-1.882v-1.095
			c-0.642,1.197-1.569,2.131-2.779,2.802c-1.211,0.671-2.59,1.007-4.136,1.007c-1.838,0-3.479-0.467-4.924-1.401
			c-1.444-0.934-2.568-2.254-3.37-3.961c-0.803-1.707-1.204-3.669-1.204-5.887c0-2.217,0.401-4.158,1.204-5.821
			c0.802-1.663,1.918-2.947,3.348-3.852c1.43-0.904,3.078-1.357,4.946-1.357c1.546,0,2.917,0.321,4.114,0.963
			c1.196,0.642,2.115,1.547,2.757,2.713V38.57c0-0.729,0.241-1.32,0.722-1.773c0.481-0.452,1.131-0.678,1.948-0.678
			S131.23,36.352,131.756,36.819z M125.694,61.504c0.948-1.196,1.422-2.903,1.422-5.121c0-2.217-0.475-3.917-1.422-5.099
			c-0.949-1.182-2.284-1.772-4.005-1.772c-1.75,0-3.107,0.584-4.07,1.75c-0.963,1.167-1.444,2.845-1.444,5.033
			c0,2.218,0.481,3.939,1.444,5.165s2.305,1.838,4.026,1.838C123.396,63.298,124.745,62.7,125.694,61.504z"/>
		<path class="st0" d="M152.348,47.476c1.444,1.474,2.167,3.713,2.167,6.718v10.68c0,0.787-0.234,1.408-0.7,1.859
			c-0.467,0.453-1.109,0.679-1.926,0.679c-0.759,0-1.378-0.233-1.86-0.7s-0.722-1.079-0.722-1.838v-0.963
			c-0.497,1.138-1.277,2.028-2.342,2.67c-1.065,0.641-2.298,0.963-3.698,0.963c-1.43,0-2.729-0.292-3.896-0.876
			c-1.167-0.583-2.086-1.386-2.757-2.407c-0.671-1.021-1.007-2.159-1.007-3.414c0-1.575,0.401-2.815,1.204-3.72
			c0.802-0.904,2.108-1.561,3.917-1.97c1.809-0.408,4.304-0.613,7.484-0.613h1.094v-1.006c0-1.43-0.307-2.473-0.919-3.13
			c-0.613-0.656-1.605-0.985-2.976-0.985c-0.847,0-1.707,0.125-2.583,0.372c-0.875,0.249-1.911,0.606-3.107,1.072
			c-0.759,0.38-1.313,0.569-1.663,0.569c-0.525,0-0.956-0.189-1.291-0.569c-0.336-0.378-0.503-0.875-0.503-1.488
			c0-0.496,0.124-0.926,0.372-1.291c0.248-0.365,0.663-0.708,1.247-1.029c1.021-0.554,2.239-0.992,3.655-1.313
			c1.415-0.321,2.808-0.481,4.18-0.481C148.694,45.266,150.904,46.003,152.348,47.476z M147.927,62.138
			c0.919-0.977,1.379-2.238,1.379-3.785v-0.92h-0.788c-1.955,0-3.473,0.088-4.552,0.263c-1.08,0.176-1.854,0.481-2.32,0.92
			c-0.467,0.438-0.7,1.036-0.7,1.794c0,0.935,0.328,1.7,0.985,2.298c0.656,0.599,1.466,0.897,2.429,0.897
			C145.819,63.605,147.008,63.116,147.927,62.138z"/>
		<path class="st0" d="M175.567,46.623c1.43,0.905,2.545,2.188,3.348,3.852s1.205,3.604,1.205,5.821c0,2.218-0.402,4.18-1.205,5.887
			s-1.926,3.027-3.369,3.961c-1.445,0.935-3.086,1.401-4.924,1.401c-1.547,0-2.926-0.336-4.136-1.007
			c-1.211-0.671-2.138-1.604-2.779-2.802v1.095c0,0.788-0.249,1.415-0.744,1.882c-0.497,0.467-1.153,0.7-1.97,0.7
			s-1.466-0.233-1.948-0.7s-0.722-1.094-0.722-1.882V38.657c0-0.758,0.255-1.371,0.766-1.838c0.51-0.466,1.174-0.7,1.992-0.7
			c0.816,0,1.473,0.219,1.969,0.656c0.496,0.438,0.744,1.036,0.744,1.795v10.329c0.642-1.167,1.561-2.064,2.757-2.692
			c1.196-0.627,2.553-0.941,4.071-0.941C172.488,45.266,174.137,45.718,175.567,46.623z M173.203,61.46
			c0.963-1.226,1.443-2.947,1.443-5.165c0-2.188-0.475-3.866-1.422-5.033c-0.947-1.167-2.297-1.75-4.049-1.75
			c-1.75,0-3.1,0.591-4.048,1.772c-0.949,1.182-1.422,2.882-1.422,5.099c0,2.218,0.474,3.925,1.422,5.121
			c0.948,1.196,2.298,1.794,4.048,1.794C170.899,63.298,172.24,62.686,173.203,61.46z"/>
		<path class="st0" d="M183.643,66.778c-0.512-0.452-0.767-1.101-0.767-1.947V38.7c0-0.846,0.255-1.488,0.767-1.926
			c0.51-0.438,1.159-0.656,1.947-0.656s1.444,0.219,1.97,0.656c0.525,0.438,0.788,1.08,0.788,1.926v26.13
			c0,0.847-0.263,1.495-0.788,1.947s-1.182,0.679-1.97,0.679S184.153,67.23,183.643,66.778z"/>
		<path class="st0" d="M210.384,61.898c0.307,0.38,0.46,0.891,0.46,1.532c0,0.904-0.54,1.663-1.619,2.275
			c-0.992,0.555-2.116,1-3.37,1.335c-1.255,0.335-2.451,0.504-3.589,0.504c-3.443,0-6.172-0.992-8.185-2.977
			c-2.014-1.984-3.021-4.697-3.021-8.141c0-2.188,0.438-4.129,1.313-5.821c0.875-1.692,2.107-3.005,3.698-3.939
			c1.59-0.933,3.392-1.4,5.405-1.4c1.926,0,3.604,0.423,5.033,1.269c1.43,0.847,2.538,2.043,3.326,3.589
			c0.788,1.547,1.182,3.37,1.182,5.471c0,1.255-0.555,1.882-1.663,1.882h-12.911c0.175,2.014,0.744,3.495,1.707,4.442
			c0.963,0.949,2.363,1.423,4.201,1.423c0.934,0,1.758-0.116,2.473-0.351c0.715-0.232,1.524-0.554,2.43-0.963
			c0.875-0.466,1.517-0.7,1.926-0.7C209.677,61.328,210.078,61.519,210.384,61.898z M198.042,50.518
			c-0.891,0.935-1.423,2.276-1.598,4.026h9.892c-0.059-1.779-0.497-3.129-1.313-4.048c-0.817-0.919-1.955-1.379-3.414-1.379
			C200.121,49.117,198.932,49.585,198.042,50.518z"/>
		<path class="st1" d="M213.119,66.515c-0.612-0.627-0.919-1.407-0.919-2.341s0.307-1.714,0.919-2.342
			c0.613-0.627,1.386-0.941,2.319-0.941s1.707,0.314,2.32,0.941c0.612,0.628,0.919,1.408,0.919,2.342s-0.307,1.714-0.919,2.341
			c-0.613,0.628-1.387,0.941-2.32,0.941S213.733,67.143,213.119,66.515z"/>
		<path class="st2" d="M224.082,66.187c-1.62-0.904-2.867-2.188-3.742-3.852c-0.876-1.663-1.313-3.604-1.313-5.821
			c0-2.217,0.46-4.18,1.379-5.887c0.919-1.707,2.21-3.026,3.873-3.961c1.663-0.933,3.574-1.4,5.734-1.4
			c1.138,0,2.282,0.161,3.436,0.481c1.152,0.321,2.166,0.759,3.042,1.313c0.934,0.613,1.4,1.386,1.4,2.32
			c0,0.642-0.153,1.16-0.46,1.554c-0.306,0.394-0.708,0.591-1.203,0.591c-0.321,0-0.657-0.072-1.007-0.219
			c-0.351-0.146-0.7-0.321-1.051-0.525c-0.642-0.379-1.255-0.678-1.838-0.897c-0.584-0.219-1.255-0.329-2.014-0.329
			c-1.81,0-3.202,0.591-4.18,1.773c-0.978,1.182-1.466,2.881-1.466,5.099c0,2.188,0.488,3.873,1.466,5.055s2.37,1.772,4.18,1.772
			c0.729,0,1.379-0.109,1.948-0.328c0.568-0.219,1.203-0.518,1.903-0.897c0.438-0.262,0.816-0.459,1.139-0.591
			c0.32-0.131,0.641-0.196,0.963-0.196c0.466,0,0.86,0.204,1.182,0.612c0.32,0.409,0.481,0.919,0.481,1.532
			c0,0.496-0.109,0.927-0.328,1.291c-0.22,0.365-0.577,0.693-1.073,0.984c-0.904,0.584-1.955,1.044-3.15,1.379
			c-1.197,0.335-2.423,0.504-3.677,0.504C227.575,67.544,225.701,67.092,224.082,66.187z"/>
		<path class="st2" d="M240.167,40.648c-0.584-0.54-0.876-1.247-0.876-2.123s0.292-1.576,0.876-2.101
			c0.583-0.525,1.371-0.788,2.363-0.788c0.963,0,1.743,0.263,2.342,0.788c0.598,0.525,0.897,1.226,0.897,2.101
			s-0.293,1.583-0.876,2.123c-0.584,0.541-1.372,0.81-2.363,0.81C241.538,41.458,240.75,41.189,240.167,40.648z M240.583,66.778
			c-0.512-0.452-0.767-1.101-0.767-1.947V47.936c0-0.846,0.255-1.488,0.767-1.926c0.51-0.438,1.159-0.657,1.947-0.657
			s1.444,0.219,1.97,0.657c0.525,0.438,0.788,1.08,0.788,1.926V64.83c0,0.847-0.263,1.495-0.788,1.947s-1.182,0.679-1.97,0.679
			S241.093,67.23,240.583,66.778z"/>
		<path class="st2" d="M263.363,65.356c0,0.7-0.284,1.232-0.854,1.597c-0.569,0.365-1.379,0.519-2.429,0.46l-1.182-0.088
			c-4.902-0.35-7.354-2.976-7.354-7.878v-9.542h-2.188c-0.788,0-1.394-0.175-1.816-0.525s-0.635-0.86-0.635-1.532
			c0-0.671,0.212-1.182,0.635-1.532s1.028-0.525,1.816-0.525h2.188v-4.027c0-0.788,0.248-1.415,0.744-1.882s1.167-0.701,2.014-0.701
			c0.816,0,1.473,0.234,1.969,0.701s0.744,1.094,0.744,1.882v4.027h3.721c0.788,0,1.393,0.175,1.816,0.525
			c0.423,0.35,0.635,0.861,0.635,1.532c0,0.671-0.212,1.182-0.635,1.532c-0.424,0.35-1.028,0.525-1.816,0.525h-3.721v9.936
			c0,2.159,0.992,3.312,2.977,3.457l1.182,0.088C262.634,63.473,263.363,64.13,263.363,65.356z"/>
		<path class="st2" d="M282.949,45.769c0.394-0.248,0.824-0.372,1.291-0.372c0.671,0,1.276,0.226,1.816,0.678
			c0.54,0.453,0.81,1.014,0.81,1.685c0,0.322-0.088,0.657-0.263,1.007l-11.948,25.036c-0.497,0.991-1.27,1.487-2.32,1.487
			c-0.671,0-1.262-0.212-1.772-0.634c-0.511-0.424-0.766-0.956-0.766-1.598c0-0.321,0.088-0.687,0.263-1.095l2.977-6.259
			l-8.142-16.938c-0.146-0.292-0.219-0.627-0.219-1.007c0-0.671,0.285-1.24,0.854-1.707c0.569-0.466,1.218-0.7,1.948-0.7
			c0.495,0,0.947,0.125,1.356,0.372c0.408,0.249,0.729,0.635,0.963,1.16l6.128,13.524l6.083-13.48
			C282.241,46.404,282.556,46.017,282.949,45.769z"/>
	</g>
</g>
<ellipse class="st3" cx="299.138" cy="58.098" rx="10.631" ry="1.146"/>
<g>
	<path class="st4" d="M309.768,32.738c0,5.776-10.459,25.686-10.459,25.686s-10.459-19.91-10.459-25.686
		c0-5.777,4.683-10.459,10.459-10.459S309.768,26.961,309.768,32.738z"/>
	<path class="st5" d="M294.024,47.626c2.633,5.75,5.285,10.798,5.285,10.798s2.654-5.053,5.289-10.806
		c-1.633,0.813-3.421,1.262-5.295,1.262C297.435,48.88,295.653,48.434,294.024,47.626z"/>
	<circle class="st6" cx="299.309" cy="32.364" r="4.957"/>
</g>
</svg>
